<svg width="138" height="125" viewBox="0 0 138 125" fill="none" xmlns="http://www.w3.org/2000/svg">
<path fill-rule="evenodd" clip-rule="evenodd" d="M0.198211 79.2879C2.68385 103.73 23.0108 117.173 51.9339 120.025C89.4828 123.727 128.395 118.167 133.408 80.9173C138.42 43.6673 78.7834 -3.93159 51.9339 0.25853C25.0844 4.44865 -2.61884 51.5869 0.198211 79.2879ZM22.083 58.3981C23.6352 61.2758 25.6377 63.7625 28.0943 65.7334C30.3687 60.9703 32.7152 56.2491 35.1244 51.5696C37.8071 46.3711 40.554 41.211 43.4164 36.1152C46.3045 31.0065 49.2311 25.9491 52.6583 21.0201C53.3643 20.0061 54.7634 19.7494 55.7774 20.4553C56.6118 21.033 56.9327 22.0983 56.6246 23.0097L56.5989 23.0739C53.0177 33.9587 50.258 45.1388 49.7574 56.3446C49.5473 61.1538 49.7848 65.9629 50.6175 70.5999C52.364 70.1837 54.0761 69.5872 55.7188 68.8207C55.6356 68.397 55.5614 67.9733 55.4949 67.5501C54.6221 61.8125 55.0585 56.1647 56.1496 50.6709C57.3305 45.1771 59.32 39.8374 62.4263 35.0111C63.9923 32.6108 65.8022 30.3003 68.2282 28.3364C69.4604 27.3737 70.8339 26.4752 72.5667 25.9233C73.4267 25.6537 74.3766 25.4868 75.3521 25.5125C76.3533 25.5382 77.316 25.7692 78.253 26.1928C79.2029 26.6164 80.0372 27.2839 80.6662 28.054C81.2823 28.8242 81.6931 29.6585 81.9883 30.48C82.5402 32.123 82.6558 33.7018 82.6044 35.1908C82.5531 36.6926 82.322 38.1174 82.0011 39.5037C81.6931 40.8899 81.308 42.2377 80.8331 43.547C78.9462 48.7712 76.3148 53.559 73.2342 58.0002C71.681 60.208 70.1151 62.3901 68.241 64.4824C66.4782 66.4397 64.5196 68.2358 62.3762 69.8053C63.0989 73.365 64.6323 76.5199 67.381 77.9344C68.928 78.8031 70.839 78.9106 72.8788 78.4307C72.0613 75.661 72.0017 72.9031 72.2202 70.2585C72.5025 67.3063 73.3112 64.3925 74.6461 61.7355C75.2751 60.4134 76.0581 59.1298 76.9823 57.9232C77.8936 56.7038 78.9847 55.5614 80.2939 54.5859C81.6032 53.6232 83.182 52.776 85.1331 52.5706C86.0958 52.4808 87.1612 52.5963 88.1495 52.9942C89.0994 53.405 89.8439 53.9569 90.4985 54.6886C91.7821 56.1647 92.2314 58.0259 92.2314 59.6175C92.2314 61.2349 91.8848 62.711 91.4227 64.0973C90.4857 66.857 89.0994 69.2958 87.5077 71.555C86.7119 72.6845 85.8519 73.7499 84.9919 74.8153C84.1576 75.855 83.1307 76.9717 82.0781 77.8959C81.369 78.5116 80.6333 79.1034 79.8643 79.6588C80.4308 80.5071 81.1792 81.1614 82.1295 81.644C82.9767 82.0419 84.0164 82.2858 84.9277 82.3371C85.9032 82.3885 86.9943 82.1831 88.0597 81.8365C89.1548 81.4866 90.2271 80.9731 91.2302 80.3224C91.2156 80.1679 91.2028 80.0138 91.1916 79.8602C90.9862 77.0492 91.2301 74.3536 91.8205 71.7222C92.1157 70.4001 92.5008 69.1166 93.0014 67.8073C93.5405 66.5237 94.1566 65.2658 94.9525 64.0592C96.5056 61.6846 98.7134 59.4896 101.691 58.3215C103.167 57.7439 104.875 57.4744 106.556 57.7696C108.212 58.0263 109.791 58.8093 110.985 59.9645C112.178 61.1069 112.961 62.5317 113.359 63.9822C113.796 65.4198 113.847 66.9088 113.68 68.3464C113.577 69.2578 112.743 69.9124 111.832 69.8097C110.997 69.707 110.381 69.0139 110.356 68.2052V68.1282C110.291 66.1001 109.419 64.1362 108.135 63.1479C107.493 62.6601 106.749 62.3905 105.966 62.352C105.208 62.3007 104.413 62.5061 103.655 62.904C102.102 63.687 100.806 65.2658 99.8045 67.0243C98.8161 68.8213 98.1486 70.8622 97.6609 73.0187C97.1859 75.1623 96.8907 77.3957 96.9805 79.4751C97.0704 81.5546 97.5325 83.5185 98.4952 84.725C98.9829 85.3155 99.5349 85.8161 100.305 86.1242C100.69 86.2782 101.101 86.4194 101.563 86.4964C102.064 86.5991 102.307 86.6376 102.744 86.6376C103.54 86.6119 104.477 86.368 105.375 85.9316C106.261 85.5209 107.159 84.8662 107.75 84.2758L107.917 84.1089C108.571 83.4543 109.624 83.4671 110.266 84.1089C110.805 84.6865 110.895 85.4952 110.548 86.1242C109.752 87.5618 108.738 88.5373 107.57 89.4358C106.402 90.3087 105.029 91.0403 103.386 91.3484C102.603 91.5024 101.614 91.5537 100.908 91.4511C100.151 91.3869 99.368 91.22 98.585 90.9761C97.0319 90.5012 95.5173 89.5385 94.3877 88.2806C93.2453 87.0355 92.5265 85.5722 92.0259 84.1346C92.0031 84.069 91.9808 84.0035 91.9591 83.9379C91.2687 84.5097 90.5212 85.0255 89.7283 85.4819C88.3934 86.2136 86.9173 86.7912 85.2614 87.0222C84.4528 87.1378 83.5029 87.1506 82.7328 87.0479C81.9241 86.9837 81.1026 86.7912 80.2811 86.5473C78.6509 86.021 77.0336 85.0712 75.8399 83.7491C75.4544 83.3393 75.1049 82.9064 74.7893 82.4578L74.736 82.4783C73.3369 83.0174 71.7966 83.3768 70.1664 83.4538C68.5619 83.5437 66.7649 83.2228 65.2631 82.581C62.144 81.3488 59.718 78.7559 58.2418 76.0475C57.713 75.0719 57.2699 74.0784 56.8983 73.0746C55.2051 73.8782 53.4369 74.5416 51.6185 75.0397C52.8583 79.5499 54.7538 83.8192 57.3049 87.6514C58.3831 89.2687 57.9467 91.4637 56.3165 92.5419C54.6992 93.6201 52.5043 93.1837 51.4261 91.5535C51.4105 91.538 51.3997 91.5177 51.3878 91.4956C51.3801 91.4812 51.372 91.466 51.3619 91.4508L51.349 91.4252C48.4326 86.6674 46.3926 81.4307 45.1926 76.0691C42.6866 76.1996 40.1546 76.0369 37.6915 75.5983C34.9575 75.0977 32.1978 74.3532 29.515 73.2493C29.3601 73.1848 29.2055 73.1189 29.0513 73.0516C27.2232 76.9316 25.4614 80.8398 23.8545 84.7762L23.8417 84.789C23.4437 85.7774 22.3142 86.2394 21.3258 85.8415C20.3375 85.4693 19.8625 84.3526 20.2604 83.377C21.9021 79.2535 23.6819 75.2171 25.5231 71.2188C24.2832 70.4618 23.0964 69.6059 21.9932 68.654C19.7341 66.7286 17.7958 64.4695 16.1143 62.1334L16.1015 62.1462C14.9591 60.5546 15.3313 58.3468 16.9102 57.2044C18.5018 56.062 20.7096 56.4342 21.852 58.0131C21.929 58.1286 22.0189 58.2698 22.083 58.3981ZM31.8769 68.1663C31.7466 68.1005 31.6172 68.0336 31.4888 67.9656C33.863 63.0998 36.3157 58.2678 38.8469 53.4693C41.4864 48.4654 44.187 43.4981 46.9841 38.6029C45.5513 44.2612 44.4946 50.0432 44.0069 55.9595C43.594 61.023 43.6318 66.1784 44.3383 71.309C42.4629 71.2859 40.5944 71.0374 38.7569 70.6179C36.3309 70.0146 33.9819 69.2702 31.8769 68.1663ZM65.2631 61.7483C64.1885 62.8956 63.0376 63.9667 61.8232 64.9486C61.7488 63.1461 61.8234 61.3112 61.9771 59.4764C62.1696 57.0247 62.5419 54.5602 63.081 52.147C63.5559 49.7211 64.249 47.3464 65.0577 45.0231C65.8407 42.6998 66.8419 40.4535 67.9586 38.3099C69.101 36.192 70.436 34.1768 71.9763 32.6364C72.7464 31.8791 73.5679 31.2502 74.3381 30.9164C75.1082 30.5699 75.7629 30.5057 76.379 30.6854C76.9053 30.8266 77.4059 31.2887 77.7909 32.123C78.1632 32.9445 78.3686 34.0356 78.3814 35.178C78.4327 37.4756 77.9578 39.9401 77.1491 42.3019C75.596 47.0769 72.939 51.5438 70.0124 55.7668C68.5234 57.8719 66.9574 59.9513 65.2631 61.7483ZM79.6521 74.995C79.2983 75.2795 78.9342 75.552 78.5618 75.811C78.3441 74.2796 78.3541 72.6119 78.5868 70.9645C78.882 68.6669 79.4339 66.4206 80.2811 64.2642C81.154 62.0949 82.245 60.0283 83.657 58.5522C84.3629 57.8205 85.1459 57.2814 85.8262 57.0889C86.1728 56.9862 86.4552 56.9605 86.7247 57.0119C86.9943 57.076 87.3922 57.2557 87.6489 57.4739C88.817 58.3468 88.9839 60.8626 88.2522 63.0832C87.5591 65.3552 86.2241 67.5245 84.7352 69.5397C83.2205 71.5421 81.5134 73.5317 79.6521 74.995ZM58.6141 98.5103C48.7304 98.1637 38.8468 95.3398 30.7216 89.6792C29.8616 89.0759 28.6935 89.2684 28.0646 90.1156C27.4356 90.9756 27.6153 92.1822 28.4625 92.8112C37.1011 99.242 47.7164 102.631 58.3573 103.337C69.0368 104.068 79.8062 102.207 89.7668 98.3563C89.7754 98.3477 89.7953 98.3392 89.8153 98.3306C89.8253 98.3263 89.8353 98.3221 89.8439 98.3178C91.32 97.7016 92.0003 96.0073 91.3842 94.5312C90.768 93.055 89.0609 92.3747 87.5976 92.9909H87.5847C78.4712 96.8416 68.5234 98.8697 58.6141 98.5103Z" fill="white"/>
</svg>